<?xml version="1.0" encoding="utf-8"?>
<!-- Generator: Adobe Illustrator 22.0.1, SVG Export Plug-In . SVG Version: 6.00 Build 0)  -->
<svg version="1.1" id="Calque_1" xmlns="http://www.w3.org/2000/svg" xmlns:xlink="http://www.w3.org/1999/xlink" x="0px" y="0px" fill="#fff"
	 viewBox="0 0 172 165.7" style="enable-background:new 0 0 172 165.7;" xml:space="preserve">
<g>
	<path d="M90.9,106.2c9.4-7.6,15.5-19.3,15.5-32.3c0-22.9-18.6-41.5-41.5-41.5S23.4,51,23.4,73.8c0,13.4,6.4,25.3,16.2,32.9
		C16.3,115.5,0,135.5,0,158.7c0,3.9,3.1,7,7,7s7-3.1,7-7c0-23.6,23.4-42.7,52.1-42.7s52.1,19.2,52.1,42.7c0,3.9,3.1,7,7,7s7-3.1,7-7
		C132.2,135,115.1,114.6,90.9,106.2z M64.9,46.3c15.2,0,27.5,12.3,27.5,27.5s-12.3,27.5-27.5,27.5S37.4,89,37.4,73.8
		S49.8,46.3,64.9,46.3z"/>
</g>
<g>
	<path d="M172,30.7c0,3.9-0.6,7.3-1.7,10.3s-2.7,5.8-4.9,8.4s-5.5,5.6-10.3,9.1l-6.2,4.5c-3.7,2.7-6.4,5.5-8.2,8.4
		c-0.9,1.5-1.6,3.2-2.1,4.9c-0.8,2.9-3.4,4.8-6.4,4.8h0c-4.6,0-7.8-4.5-6.3-8.8c0.1-0.2,0.1-0.3,0.2-0.5c1-2.7,2.3-5,3.9-7.1
		c1.6-2.1,3.4-3.9,5.4-5.5s4-3.2,6.1-4.6c2.1-1.5,4.1-2.9,6.1-4.4s3.7-3.1,5.3-4.9c1.5-1.8,2.8-3.8,3.7-6.1c1-2.3,1.4-4.9,1.4-7.9
		c0-5.9-2-10.5-6-13.9s-7.6-5.1-14.8-5.1c-7.2,0-10.9,1.8-15.1,5.4c-3,2.6-5.1,5.8-6.4,9.8c-0.9,2.9-3.6,4.9-6.6,4.7l-0.9-0.1
		c-4.4-0.3-7.2-4.6-5.9-8.8c2-6.2,5.4-11.3,10.2-15.2C119.2,2.7,126,0,137,0c11.5,0,18.5,2.7,25.1,8.1S172,21.1,172,30.7z
		 M123.8,103.6v-2.2c0-3.7,3-6.7,6.7-6.7h1.7c3.7,0,6.7,3,6.7,6.7v2.2c0,3.7-3,6.7-6.7,6.7h-1.7
		C126.8,110.2,123.8,107.2,123.8,103.6z"/>
</g>
</svg>
